'Papillon' is the forceful portrait of a defiant man, who survives harrowing
years of his life in small solitary cells, suffering the worst type of
brutality and despair... It is the amazing true life story of a man of
character called Henri Charriere, a Frenchman sentenced to life at Devil's
island for a murder he did not commit... Henri gains his nick name 'Papillon'
for the large butterfly (symbolic of freedom) tattooed on his chest...

Very memorable, unforgettable performances, shocking action scenes an
psychological thrills and twists.
 
http://en.wikipedia.org/wiki/Papillon_%28book%29
 
http://en.wikipedia.org/wiki/Papillon_%28film%29
 
http://www.imdb.com/title/tt0070511/


R E L E A S E    I N F O
                   
           __ .---.
       __ /  `  .-.7,--.
      /  `. .-''. -,  , \
      '--.-    -;   | ) /
      ,` /   \ ,_) /   '-.            
     /  (  (  |   /  .' ) \           AMIABLE proudly presents:
     '.  `--,/   .---' ,-.|           
       `--.  / '-, -' .'              Papillon.1973.1080p.BluRay.X264-AMIABLE
      .==,=; `-,.;--'                 
     / ,'  _;--;|                     Date .....: 20th May 2011
    /_...=' you are my                Runtime ..: 02:30:47
               || .==,=.              Size .....: 10.93gb
               ||/    '.\             Video ....: 1920x808 (X264 @ 23.976fps)
              ,||`'=...__\            Bitrate ..: 8870kbps
               ||                     Audio ....: DTS 1509kbps
      sweetest downfall..             Source ...: Retail Region A Blu-Ray
               ||,                    Lang .....: English 
               ||                     Subs .....: English / French / Spanish
               ||                                 / + Romanian
              ,||                     IMDB .....: 
               ||                           http://www.imdb.com/title/tt0070511/
               ||                     Rating ...: 8.0/10 (31,832 votes)
       I loved you first              Screens ..: Opening Week - (USA)
               ||                                  (December 16, 1973)
               ||                     Genre ....: Biography | Crime | Drama
               ||,                    Director .: Franklin J. Schaffner
               ||                     Cast .....: Steve McQueen, Dustin
                                                   Hoffman, Victor Jory




                                          Tomorrow's just your future yesterday!

Screenshots & Sample included


For other esteemed movies please visit:
 
http://thepiratebay.org/user/Wind8Water/


Media Info

Format                           : Matroska
File size                        : 10.9 GiB
Duration                         : 2h 30mn
Overall bit rate                 : 10.4 Mbps
Writing application              : x264.exe
Writing library                  : mkv2rls v1.4 (date: 2011 mar 29)

Video
Format                           : AVC
Format profile                   : High@L4.1
Format settings, CABAC           : Yes
Format settings, ReFrames        : 5 frames
Bit rate                         : 8 870 Kbps
Width                            : 1 920 pixels
Height                           : 808 pixels
Display aspect ratio             : 2.35:1
Frame rate                       : 23.976 fps
Color space                      : YUV
Chroma subsampling               : 4:2:0
Bit depth                        : 8 bits
Scan type                        : Progressive
Bits/(Pixel*Frame)               : 0.238
Stream size                      : 9.13 GiB (83%)
Writing library                  : x264 core 115 r1995 c1e60b9
Language                         : English

Audio
Format                           : DTS
Bit rate mode                    : Constant
Bit rate                         : 1 510 Kbps
Channel(s)                       : 6 channels
Channel positions                : Front: L C R, Side: L R, LFE
Sampling rate                    : 48.0 KHz
Bit depth                        : 24 bits
Compression mode                 : Lossy
Stream size                      : 1.59 GiB (15%)
Language                         : English



                                Enjoy & Please Seed  !		